<?xml version="1.0" standalone="no"?><!DOCTYPE svg PUBLIC "-//W3C//DTD SVG 1.1//EN" "http://www.w3.org/Graphics/SVG/1.1/DTD/svg11.dtd"><svg t="1660354729354" class="icon" viewBox="0 0 1024 1024" version="1.1" xmlns="http://www.w3.org/2000/svg" p-id="2475" xmlns:xlink="http://www.w3.org/1999/xlink" width="120" height="120"><defs><style type="text/css"></style></defs><path d="M-242.12320149-242.12320149m754.12320149 0l0 0q754.12320149 0 754.12320149 754.12320149l0 0q0 754.12320149-754.12320149 754.12320149l0 0q-754.12320149 0-754.12320149-754.12320149l0 0q0-754.12320149 754.12320149-754.12320149Z" fill="#FFFFFF" p-id="2476"></path><path d="M895.051852 519.585185a383.06323 383.06323 0 0 1-236.464356 353.8944 383.067022 383.067022 0 0 1-417.446874-83.035022A383.055644 383.055644 0 0 1 512 136.533333v383.051852h383.051852z" fill="#4CA7FC" p-id="2477"></path><path d="M155.484919 371.344119c-18.523022 18.432-6.087111 2.844444-18.951586-2.275556C238.853689-43.265896 540.497541 9.796267 586.907496 17.961719l0.766104 0.13274c34.986667 6.144 9.432178 57.169541-7.717926 81.916208l-20.578607 92.148622c-21.439526 9.386667-42.1888 30.173867-46.307556 60.890074-4.114963 30.72 35.161126 28.702341 66.886163 21.022341l72.032711-15.36-92.611318 127.992415c6.8608 26.449541 16.463644 83.960415 0 102.388622-16.463644 18.432-37.732504-50.342874-46.307556-87.032415-23.153778-23.036207-49.758815-17.123556-57.988741 38.164859-8.233719 55.292207-42.279822 59.107556-59.433718 48.867556-9.432178 46.929541-19.016059 71.672415 9.375289 71.672415 65.069511 0 195.515733 79.356207 205.805037 102.392414 8.233719 18.432 34.300207 28.156207 46.307555 30.716208 27.439407 6.826667 44.824652 38.771674 23.779556 63.844503-27.845215 33.173807-52.937007 108.513659-62.369185 156.296534l-105.475793-5.12 5.146548-71.672415c-111.134341-57.340207-96.419081-143.348622-103.549155-197.101037H353.57203c-33.993007-19.823881-14.920059-56.828207-74.604089-69.116207-74.604089-15.356207-77.179259-120.308622-74.604089-151.02483 2.571378-30.716207-25.725156-71.672415-48.878933-48.636207z" fill="#FFFFFF" p-id="2478"></path><path d="M585.906252 17.988267l0.773689 0.136533c9.367704 1.657363 15.049007 6.481541 17.616592 13.39923 2.480356 6.693926 1.911467 14.973156-0.193422 23.445807-4.175644 16.823941-14.756978 35.802074-23.278933 48.268326l-20.548267 92.766815-1.092267 0.481659c-20.627911 9.102222-40.539022 29.240889-44.490903 58.96723-0.951941 7.149037 0.62957 12.033896 3.633303 15.409303 3.079585 3.458844 7.960652 5.688889 14.263941 6.826667 12.648296 2.283141 29.836326-0.037926 45.480771-3.853274l0.060681-0.01517 77.346133-16.622934-94.685866 131.925334c3.367822 13.361304 7.293156 33.8944 8.461274 53.513481 0.59923 10.076919 0.477867 19.990756-0.853334 28.607526-1.323615 8.559881-3.883615 16.137481-8.404385 21.238519-2.377956 2.685156-5.169304 4.11117-8.271644 3.838103-2.950637-0.257896-5.635793-2.017659-8.009956-4.399407-4.740741-4.767289-9.314607-13.137541-13.509215-22.892089-8.347496-19.402904-15.701333-45.495941-19.98317-63.848296-11.040237-10.8544-22.069096-14.097067-31.04237-9.382874-9.40563 4.937956-17.885867 19.171556-21.943941 46.648888-4.141511 28.04243-14.870756 43.603437-27.299082 50.665245a35.062519 35.062519 0 0 1-32.225659 1.372918 1600.728178 1600.728178 0 0 1-2.817896 13.456119l-0.151704 0.705422c-1.042963 4.90003-2.013867 9.454933-2.852029 13.687467-1.763556 8.905007-2.905126 16.186785-2.916504 21.955318-0.011378 5.791289 1.115022 9.587674 3.405748 11.977008 2.275556 2.374163 6.178133 3.868444 12.936533 3.868444 16.524326 0 36.992948 5.063111 58.424889 12.88723 21.477452 7.839289 44.100267 18.51923 64.997452 29.904592 20.893393 11.389156 40.110459 23.510281 54.765037 34.247112 7.327289 5.366519 13.547141 10.414459 18.276504 14.874548 4.657304 4.391822 8.100978 8.419556 9.583881 11.764622 3.777422 8.529541 11.764622 15.24243 20.536889 20.184178 8.730548 4.918993 17.93517 7.911348 23.680948 9.14394l0.037926 0.007586 0.037926 0.011377c14.294281 3.584 25.99443 13.763319 31.387497 26.415408 5.430993 12.739319 4.429748 27.932444-6.591526 41.168592-13.528178 16.251259-26.529185 43.038341-37.338074 71.899971-10.786133 28.808533-19.300504 59.426133-23.94643 83.156385l-0.39443 2.006281-108.934637-5.332385 5.157926-72.453689c-54.628504-28.804741-78.624237-64.796444-89.721363-100.4544-5.575111-17.916207-7.877215-35.676919-9.227378-52.250548-0.508207-6.216059-0.879881-12.219733-1.240177-17.995852-0.557511-8.958104-1.080889-17.373867-2.01766-25.1904h-59.088592l-0.549926-0.32237c-14.282904-8.3968-19.657007-19.956622-24.723911-30.852741-1.175704-2.529659-2.336237-5.025185-3.587793-7.437274-3.352652-6.454993-7.395556-12.523141-14.097067-17.737955-6.712889-5.2224-16.262637-9.716622-30.795851-12.731734-38.191407-7.930311-57.742222-38.991644-67.405749-71.312118-9.671111-32.335644-9.663526-66.529659-8.374044-82.056534 1.217422-14.662163-4.918993-31.945007-14.093274-42.685629-4.581452-5.358933-9.716622-8.855704-14.810074-9.800059-4.949333-0.9216-10.243793 0.493037-15.511704 5.776118-4.524563 4.543526-7.391763 7.232474-9.272889 8.449896-0.838163 0.538548-2.169363 1.266726-3.625718 0.887467-1.6384-0.42477-2.241422-1.892504-2.468978-2.518281a21.083022 21.083022 0 0 1-0.546133-1.854578c-0.644741-2.480356-1.327407-5.082074-5.400652-6.712889L136.533333 372.455348l0.493037-1.998696C187.866074 163.896889 288.37357 73.500444 382.312296 35.968948c93.752889-37.46323 180.497067-22.076681 203.593956-17.980681zM142.059141 369.724681c4.778667 2.723081 5.92403 7.058015 6.454992 9.30323 1.452563-1.096059 3.857067-3.337481 7.911348-7.406933 6.200889-6.219852 13.012385-8.320948 19.691141-7.084563 6.534637 1.21363 12.553481 5.548563 17.529363 11.373985 9.936593 11.631881 16.547081 30.143526 15.215882 46.163437-1.259141 15.1552-1.251556 48.715852 8.192 80.300563 9.447348 31.603674 28.133452 60.624593 63.848296 68.039111 15.033837 3.117511 25.296593 7.846874 32.722489 13.622993 7.437274 5.787496 11.86323 12.500385 15.390341 19.292918 1.403259 2.707911 2.6624 5.396859 3.898785 8.040297 4.953126 10.596504 9.576296 20.48 22.072889 28.027259h61.944414l0.269275 2.055585c1.122607 8.529541 1.710459 17.942756 2.324859 27.833837 0.360296 5.745778 0.728178 11.654637 1.217422 17.643141 1.338785 16.429511 3.602963 33.792 9.02637 51.222755 10.812681 34.736356 34.266074 70.034015 88.769423 98.383645l1.376711 0.7168-5.036563 70.731852 100.063763 4.896237c4.778667-23.696119 13.190637-53.665185 23.764385-81.901037 10.850607-28.982993 24.075378-56.388267 38.130726-73.272889 9.8304-11.806341 10.642015-25.088 5.878518-36.268563-4.801422-11.256415-15.287941-20.434489-28.163792-23.677156-6.151585-1.327407-15.78477-4.467674-24.959052-9.636978-9.155319-5.157926-18.158933-12.50797-22.535585-22.387674-1.065719-2.408296-3.8912-5.889896-8.502993-10.236207-4.539733-4.281837-10.596504-9.20083-17.825185-14.502874-14.461156-10.592711-33.492385-22.603852-54.237867-33.905778-20.745481-11.305719-43.155911-21.879467-64.360296-29.620148-21.249896-7.755852-41.107911-12.602785-56.81683-12.602785-7.308326 0-12.765867-1.596681-16.330903-5.321008-3.549867-3.705363-4.736948-9.022578-4.721778-15.268977 0.011378-6.269156 1.240178-13.952948 3.007526-22.869334 0.845748-4.262874 1.820444-8.848119 2.859615-13.732978l0.155496-0.724385c1.099852-5.165511 2.26797-10.66477 3.432296-16.505363l0.656119-3.288177 2.863407 1.721837c7.850667 4.72557 19.622874 6.223644 30.382459 0.109985 10.725452-6.094696 20.942696-20.051437 24.95526-47.236741 4.099793-27.7504 12.875852-44.085096 24.424296-50.149452 11.851852-6.227437 25.281422-1.080889 37.023289 10.698904l0.477867 0.477867 0.151703 0.659911c4.236326 18.268919 11.590163 44.445393 19.876978 63.711763 4.171852 9.697659 8.453689 17.339733 12.519348 21.420563 2.029037 2.040415 3.731911 2.916504 5.085867 3.034074 1.206044 0.106193 2.643437-0.352711 4.342518-2.271763 3.633304-4.099793 5.999881-10.604089 7.2704-18.818845 1.259141-8.157867 1.391881-17.707615 0.80403-27.594903-1.179496-19.77837-5.2224-40.588326-8.594015-53.691734l-0.276859-1.077096 88.822518-123.756089-65.353955 14.047763c-15.78477 3.849481-33.750281 6.367763-47.388445 3.90637-6.841837-1.236385-12.88723-3.777422-16.941511-8.332326-4.126341-4.634548-5.882311-11.006104-4.793837-19.190518 4.133926-31.118222 24.708741-52.31123 46.171022-62.183348l20.229689-91.337008 0.261689-0.379259c8.427141-12.257659 18.82643-30.90963 22.846578-47.104 2.017659-8.127526 2.34003-15.284148 0.348919-20.646874-1.903881-5.131378-6.05677-8.980859-14.021215-10.391704l-0.758519-0.136533c-22.907259-4.058074-108.55917-19.239822-201.049126 17.7152-92.04243 36.77677-191.317333 125.383111-241.993955 329.360118z m6.800118 10.566163a0.364089 0.364089 0 0 1 0.022756 0.049304l-0.022756-0.049304z" fill="#FFFFFF" p-id="2479"></path><path d="M819.2 519.585185a307.162074 307.162074 0 0 0-89.975467-217.224533A307.203793 307.203793 0 0 0 512 212.385185v307.2h307.2z" fill="#FF6868" p-id="2480"></path><path d="M129.099852 530.962963a383.836919 383.836919 0 0 1 108.210252-278.019793A383.37043 383.37043 0 0 1 511.893807 136.533333L512 208.232296a311.830756 311.830756 0 0 0-223.269926 94.655526 312.016593 312.016593 0 0 0-87.991941 226.068859l-71.642074 2.006282z" fill="#4CA7FC" p-id="2481"></path><path d="M585.379081 183.447704l22.70246 6.610489-11.901156 40.865185-22.702459-6.614282 11.901155-40.861392z" fill="#FF6868" p-id="2482"></path><path d="M618.624948 181.725867l-4.452504 14.537007-37.910755-11.616711 4.452504-14.533215 37.910755 11.616711zM730.487467 236.581926l-8.836741 12.371437-30.405215-21.712593 8.832948-12.371437 30.409008 21.716386zM811.216593 327.035259l-12.242489 9.0112-22.148741-30.090429 12.242489-9.0112 22.148741 30.090429zM854.171496 429.139437l-14.430815 4.778667-11.525688-34.781867 14.430814-4.782459 11.525689 34.785659z" fill="#FF6868" p-id="2483"></path><path d="M697.450193 230.741333l19.270163 13.698845-24.66323 34.687052-19.270163-13.702637 24.66323-34.687052zM783.215881 310.332681l13.748149 19.239823-34.630163 24.742874-13.748148-19.239822 34.630162-24.742875zM833.809067 404.631704l7.050429 22.569718-40.626252 12.690015-7.046637-22.569718 40.62246-12.690015z" fill="#FF6868" p-id="2484"></path><path d="M640.948148 324.266667c0 26.184059-21.223348 47.407407-47.407407 47.407407S546.133333 350.450726 546.133333 324.266667 567.356681 276.859259 593.540741 276.859259 640.948148 298.082607 640.948148 324.266667zM690.251852 367.881481a22.755556 22.755556 0 1 1-45.511111 0 22.755556 22.755556 0 0 1 45.511111 0z" fill="#FFFFFF" p-id="2485"></path></svg>